<svg width="21" height="19" viewBox="0 0 21 19" fill="none" xmlns="http://www.w3.org/2000/svg">
<path id="Vector" fill-rule="evenodd" clip-rule="evenodd" d="M10.78 0.380622C11.0238 0.13691 11.3544 0 11.6991 0C12.0438 0 12.3744 0.13691 12.6182 0.380622L20.4182 8.18062C20.6619 8.42441 20.7988 8.75501 20.7988 9.09972C20.7988 9.44444 20.6619 9.77504 20.4182 10.0188L12.6182 17.8188C12.373 18.0556 12.0446 18.1867 11.7038 18.1837C11.3629 18.1807 11.0369 18.044 10.7958 17.803C10.5548 17.562 10.4181 17.2359 10.4151 16.895C10.4122 16.5542 10.5432 16.2258 10.78 15.9806L16.3609 10.3997L1.29911 10.3997C0.954325 10.3997 0.623665 10.2628 0.379868 10.019C0.13607 9.77516 -0.000892639 9.4445 -0.000892639 9.09972C-0.000892639 8.75494 0.13607 8.42428 0.379868 8.18048C0.623665 7.93669 0.954325 7.79972 1.29911 7.79972L16.3609 7.79972L10.78 2.21882C10.5363 1.97504 10.3994 1.64444 10.3994 1.29972C10.3994 0.955009 10.5363 0.624408 10.78 0.380622Z" fill="#292C33"/>
</svg>
