<svg width="16" height="16" viewBox="0 0 16 16" fill="none" xmlns="http://www.w3.org/2000/svg">
<g id="f7:exclamationmark-circle">
<path id="Vector" d="M7.99992 14.8305C11.7299 14.8305 14.8302 11.7368 14.8302 8.00021C14.8302 4.27021 11.7231 1.16992 7.99306 1.16992C4.25678 1.16992 1.16992 4.27021 1.16992 8.00021C1.16992 11.7368 4.26335 14.8305 7.99992 14.8305ZM8.00021 13.6922C4.83906 13.6922 2.31421 11.1608 2.31421 8.00021C2.31421 4.84592 4.83221 2.30821 7.99306 2.30821C11.1471 2.30821 13.6848 4.84621 13.6916 8.00021C13.6982 11.1611 11.1536 13.6922 7.99964 13.6922M7.99306 9.21221C8.31421 9.21221 8.49506 9.03135 8.50164 8.68335L8.60221 5.14764C8.60906 4.80592 8.34106 4.55164 7.98621 4.55164C7.62449 4.55164 7.37021 4.79935 7.37678 5.14078L7.46392 8.68335C7.47049 9.02478 7.65821 9.21221 7.99306 9.21221ZM7.99306 11.3885C8.37449 11.3885 8.71592 11.0805 8.71592 10.6922C8.71592 10.2971 8.38135 9.99564 7.99306 9.99564C7.59792 9.99564 7.26964 10.3036 7.26964 10.6922C7.26964 11.0739 7.60449 11.3885 7.99306 11.3885Z" fill="#848080"/>
</g>
</svg>
