<svg width="27" height="27" viewBox="0 0 27 27" fill="none" xmlns="http://www.w3.org/2000/svg">
<g id="solar:paperclip-linear">
<path id="Vector" d="M8.90775 20.0332L17.784 11.536C18.0363 11.299 18.2373 11.0128 18.3748 10.6951C18.5122 10.3774 18.5831 10.0349 18.5831 9.68878C18.5831 9.34263 18.5122 9.00014 18.3748 8.68244C18.2373 8.36473 18.0363 8.07855 17.784 7.84153C17.2617 7.35022 16.5717 7.07667 15.8546 7.07667C15.1376 7.07667 14.4475 7.35022 13.9253 7.84153L5.112 16.2768C4.63249 16.7271 4.25033 17.2708 3.98909 17.8745C3.72785 18.4782 3.59308 19.129 3.59308 19.7868C3.59308 20.4446 3.72785 21.0954 3.98909 21.6991C4.25033 22.3027 4.63249 22.8465 5.112 23.2968C7.137 25.2352 10.4198 25.2352 12.4448 23.2968L21.3874 14.7378C24.3709 11.8803 24.3709 7.24978 21.3874 4.39228C18.4027 1.53591 13.5641 1.53591 10.5795 4.39228L3.375 11.2885" stroke="black" stroke-width="1.625" stroke-linecap="round"/>
</g>
</svg>
