<svg width="30" height="30" viewBox="0 0 30 30" fill="none" xmlns="http://www.w3.org/2000/svg">
<g id="material-symbols-light:article-outline">
<path id="Vector" d="M9.375 20.625H16.875V19.375H9.375V20.625ZM9.375 15.625H20.625V14.375H9.375V15.625ZM9.375 10.625H20.625V9.375H9.375V10.625ZM7.02 25C6.44417 25 5.96375 24.8075 5.57875 24.4225C5.19375 24.0375 5.00083 23.5567 5 22.98V7.02C5 6.44417 5.19292 5.96375 5.57875 5.57875C5.96458 5.19375 6.445 5.00083 7.02 5H22.9813C23.5562 5 24.0367 5.19292 24.4225 5.57875C24.8083 5.96458 25.0008 6.445 25 7.02V22.9813C25 23.5562 24.8075 24.0367 24.4225 24.4225C24.0375 24.8083 23.5567 25.0008 22.98 25H7.02ZM7.02 23.75H22.9813C23.1729 23.75 23.3492 23.67 23.51 23.51C23.6708 23.35 23.7508 23.1733 23.75 22.98V7.02C23.75 6.8275 23.67 6.65083 23.51 6.49C23.35 6.32917 23.1733 6.24917 22.98 6.25H7.02C6.8275 6.25 6.65083 6.33 6.49 6.49C6.32917 6.65 6.24917 6.82667 6.25 7.02V22.9813C6.25 23.1729 6.33 23.3492 6.49 23.51C6.65 23.6708 6.82625 23.7508 7.01875 23.75" fill="black"/>
</g>
</svg>
