<svg width="25" height="25" viewBox="0 0 25 25" fill="none" xmlns="http://www.w3.org/2000/svg">
<g id="ph:pencil-line">
<g id="Group 12">
<path id="Vector" d="M21.4795 9.16523L17.7089 5.3955C17.5836 5.27011 17.4347 5.17065 17.2709 5.10279C17.1071 5.03493 16.9316 5 16.7543 5C16.577 5 16.4014 5.03493 16.2376 5.10279C16.0738 5.17065 15.925 5.27011 15.7996 5.3955L5.39571 15.7994C5.26981 15.9243 5.16999 16.073 5.10206 16.2368C5.03413 16.4006 4.99944 16.5763 5.00001 16.7536V20.5242C5.00001 20.8822 5.14223 21.2256 5.3954 21.4788C5.64856 21.7319 5.99193 21.8741 6.34996 21.8741H20.5244C20.7034 21.8741 20.8751 21.803 21.0017 21.6765C21.1283 21.5499 21.1994 21.3782 21.1994 21.1992C21.1994 21.0202 21.1283 20.8485 21.0017 20.7219C20.8751 20.5953 20.7034 20.5242 20.5244 20.5242H12.0299L21.4795 11.0746C21.6049 10.9492 21.7044 10.8004 21.7722 10.6366C21.8401 10.4728 21.875 10.2972 21.875 10.1199C21.875 9.94259 21.8401 9.76703 21.7722 9.60322C21.7044 9.43942 21.6049 9.29059 21.4795 9.16523ZM13.7747 9.32891L15.1828 10.7371L8.03739 17.8825L6.62923 16.4744L13.7747 9.32891ZM6.34996 20.5242V18.1036L8.77058 20.5242H6.34996ZM10.3998 20.2449L8.99248 18.8368L16.1371 11.6913L17.5452 13.0995L10.3998 20.2449ZM18.4995 12.1452L14.7298 8.37467L16.7547 6.34974L20.5244 10.1203L18.4995 12.1452Z" fill="#5422E1"/>
</g>
</g>
</svg>
