<svg width="29" height="24" viewBox="0 0 29 24" fill="none" xmlns="http://www.w3.org/2000/svg">
<g id="Group">
<path id="Vector" d="M24.1576 18C24.4549 18.0003 24.7409 18.0979 24.9571 18.2728C25.1734 18.4478 25.3035 18.687 25.3209 18.9414C25.3383 19.1958 25.2418 19.4464 25.0509 19.6418C24.8601 19.8373 24.5893 19.9629 24.2941 19.993L24.1576 20H5.49089C5.19353 19.9997 4.90751 19.9021 4.69129 19.7272C4.47506 19.5522 4.34494 19.313 4.32752 19.0586C4.31009 18.8042 4.40667 18.5536 4.59753 18.3582C4.78838 18.1627 5.05911 18.0371 5.35439 18.007L5.49089 18H24.1576ZM24.1576 11C24.467 11 24.7637 11.1054 24.9825 11.2929C25.2013 11.4804 25.3242 11.7348 25.3242 12C25.3242 12.2652 25.2013 12.5196 24.9825 12.7071C24.7637 12.8946 24.467 13 24.1576 13H5.49089C5.18147 13 4.88472 12.8946 4.66593 12.7071C4.44714 12.5196 4.32422 12.2652 4.32422 12C4.32422 11.7348 4.44714 11.4804 4.66593 11.2929C4.88472 11.1054 5.18147 11 5.49089 11H24.1576ZM24.1576 4C24.467 4 24.7637 4.10536 24.9825 4.29289C25.2013 4.48043 25.3242 4.73478 25.3242 5C25.3242 5.26522 25.2013 5.51957 24.9825 5.70711C24.7637 5.89464 24.467 6 24.1576 6H5.49089C5.18147 6 4.88472 5.89464 4.66593 5.70711C4.44714 5.51957 4.32422 5.26522 4.32422 5C4.32422 4.73478 4.44714 4.48043 4.66593 4.29289C4.88472 4.10536 5.18147 4 5.49089 4H24.1576Z" fill="black"/>
</g>
</svg>
