<svg width="26" height="26" viewBox="0 0 26 26" fill="none" xmlns="http://www.w3.org/2000/svg">
<g id="ph:pencil-line">
<g id="Group 12">
<path id="Vector" d="M22.3379 9.53106L18.4165 5.61054C18.2861 5.48014 18.1313 5.37669 17.961 5.30612C17.7906 5.23554 17.608 5.19922 17.4236 5.19922C17.2393 5.19922 17.0567 5.23554 16.8863 5.30612C16.716 5.37669 16.5612 5.48014 16.4308 5.61054L5.61076 16.4306C5.47982 16.5605 5.37601 16.7151 5.30536 16.8855C5.23471 17.0558 5.19864 17.2386 5.19923 17.423V21.3444C5.19923 21.7167 5.34714 22.0738 5.61043 22.3371C5.87372 22.6004 6.23082 22.7483 6.60317 22.7483H21.3446C21.5308 22.7483 21.7093 22.6744 21.841 22.5427C21.9726 22.4111 22.0466 22.2325 22.0466 22.0464C22.0466 21.8602 21.9726 21.6816 21.841 21.55C21.7093 21.4183 21.5308 21.3444 21.3446 21.3444H12.5103L22.3379 11.5168C22.4683 11.3864 22.5717 11.2316 22.6423 11.0613C22.7129 10.8909 22.7492 10.7083 22.7492 10.5239C22.7492 10.3395 22.7129 10.1569 22.6423 9.98657C22.5717 9.81621 22.4683 9.66143 22.3379 9.53106ZM14.3249 9.70129L15.7894 11.1658L8.3581 18.597L6.89361 17.1325L14.3249 9.70129ZM6.60317 21.3444V18.8269L9.12062 21.3444H6.60317ZM10.815 21.0539L9.3514 19.5895L16.7818 12.1582L18.2463 13.6227L10.815 21.0539ZM19.2387 12.6303L15.3182 8.70887L17.4241 6.60295L21.3446 10.5244L19.2387 12.6303Z" fill="black"/>
</g>
</g>
</svg>
