<svg width="28" height="27" viewBox="0 0 28 27" fill="none" xmlns="http://www.w3.org/2000/svg">
<g id="bi:person">
<path id="Vector" d="M14.4648 13.5C15.8075 13.5 17.0952 12.9666 18.0446 12.0172C18.994 11.0678 19.5273 9.78016 19.5273 8.4375C19.5273 7.09484 18.994 5.80717 18.0446 4.85777C17.0952 3.90837 15.8075 3.375 14.4648 3.375C13.1222 3.375 11.8345 3.90837 10.8851 4.85777C9.93571 5.80717 9.40234 7.09484 9.40234 8.4375C9.40234 9.78016 9.93571 11.0678 10.8851 12.0172C11.8345 12.9666 13.1222 13.5 14.4648 13.5ZM17.8398 8.4375C17.8398 9.33261 17.4843 10.1911 16.8513 10.824C16.2184 11.4569 15.3599 11.8125 14.4648 11.8125C13.5697 11.8125 12.7113 11.4569 12.0784 10.824C11.4454 10.1911 11.0898 9.33261 11.0898 8.4375C11.0898 7.54239 11.4454 6.68395 12.0784 6.05101C12.7113 5.41808 13.5697 5.0625 14.4648 5.0625C15.3599 5.0625 16.2184 5.41808 16.8513 6.05101C17.4843 6.68395 17.8398 7.54239 17.8398 8.4375ZM24.5898 21.9375C24.5898 23.625 22.9023 23.625 22.9023 23.625H6.02734C6.02734 23.625 4.33984 23.625 4.33984 21.9375C4.33984 20.25 6.02734 15.1875 14.4648 15.1875C22.9023 15.1875 24.5898 20.25 24.5898 21.9375ZM22.9023 21.9307C22.9007 21.5156 22.6425 20.2669 21.4983 19.1227C20.3981 18.0225 18.3275 16.875 14.4648 16.875C10.6022 16.875 8.53159 18.0225 7.43134 19.1227C6.28722 20.2669 6.03072 21.5156 6.02734 21.9307H22.9023Z" fill="black"/>
</g>
</svg>
