<svg width="40" height="40" viewBox="0 0 40 40" fill="none" xmlns="http://www.w3.org/2000/svg">
<g id="akar-icons:coin" clip-path="url(#clip0_374_4344)">
<g id="Group" filter="url(#filter0_d_374_4344)">
<path id="Vector" d="M20.4844 36.0039C11.9585 36.0039 5.04687 28.7285 5.04687 19.7539C5.04687 10.7793 11.9585 3.50391 20.4844 3.50391C29.0103 3.50391 35.9219 10.7793 35.9219 19.7539C35.9219 28.7285 29.0103 36.0039 20.4844 36.0039Z" stroke="#5422E1" stroke-width="3" stroke-linecap="round" stroke-linejoin="round"/>
<path id="Vector_2" d="M24.5469 14.5539C23.5126 13.7152 22.2222 13.2564 20.8906 13.2539C17.5252 13.2539 14.7969 16.1627 14.7969 19.7539C14.7969 23.3452 17.5252 26.2539 20.8906 26.2539C22.2621 26.2539 23.528 25.7697 24.5469 24.9539" stroke="#5422E1" stroke-width="3" stroke-linecap="round" stroke-linejoin="round"/>
</g>
</g>
<defs>
<filter id="filter0_d_374_4344" x="1.54688" y="2.00391" width="37.875" height="39.5" filterUnits="userSpaceOnUse" color-interpolation-filters="sRGB">
<feFlood flood-opacity="0" result="BackgroundImageFix"/>
<feColorMatrix in="SourceAlpha" type="matrix" values="0 0 0 0 0 0 0 0 0 0 0 0 0 0 0 0 0 0 127 0" result="hardAlpha"/>
<feOffset dy="2"/>
<feGaussianBlur stdDeviation="1"/>
<feComposite in2="hardAlpha" operator="out"/>
<feColorMatrix type="matrix" values="0 0 0 0 0 0 0 0 0 0 0 0 0 0 0 0 0 0 0.25 0"/>
<feBlend mode="normal" in2="BackgroundImageFix" result="effect1_dropShadow_374_4344"/>
<feBlend mode="normal" in="SourceGraphic" in2="effect1_dropShadow_374_4344" result="shape"/>
</filter>
<clipPath id="clip0_374_4344">
<rect width="39" height="39" fill="white" transform="translate(0.546875 0.503906)"/>
</clipPath>
</defs>
</svg>
