<svg width="393" height="46" viewBox="0 0 393 46" fill="none" xmlns="http://www.w3.org/2000/svg">
<path d="M42.7009 19.7231C40.1027 19.7231 38.2516 21.4995 38.2516 23.9316V23.9482C38.2516 26.2227 39.862 27.8994 42.1613 27.8994C43.8049 27.8994 44.8508 27.061 45.2907 26.1147H45.4567C45.4567 26.2061 45.4484 26.2974 45.4484 26.3887C45.3571 28.6797 44.5519 30.5391 42.6511 30.5391C41.5969 30.5391 40.8581 29.9912 40.5427 29.1528L40.5178 29.0698H38.4094L38.426 29.1611C38.8078 30.9956 40.4514 32.2988 42.6511 32.2988C45.6642 32.2988 47.4821 29.9082 47.4821 25.874V25.8574C47.4821 21.541 45.2575 19.7231 42.7009 19.7231ZM42.6926 26.2559C41.3312 26.2559 40.3434 25.2598 40.3434 23.8735V23.8569C40.3434 22.5205 41.3976 21.4663 42.7175 21.4663C44.0456 21.4663 45.0832 22.5371 45.0832 23.9067V23.9233C45.0832 25.2764 44.0456 26.2559 42.6926 26.2559ZM50.8427 24.2388C51.6063 24.2388 52.1625 23.6577 52.1625 22.9272C52.1625 22.1885 51.6063 21.6157 50.8427 21.6157C50.0873 21.6157 49.5228 22.1885 49.5228 22.9272C49.5228 23.6577 50.0873 24.2388 50.8427 24.2388ZM50.8427 30.3979C51.6063 30.3979 52.1625 29.8252 52.1625 29.0864C52.1625 28.3477 51.6063 27.7749 50.8427 27.7749C50.0873 27.7749 49.5228 28.3477 49.5228 29.0864C49.5228 29.8252 50.0873 30.3979 50.8427 30.3979ZM60.0138 32H62.0641V29.7007H63.6744V27.9326H62.0641V20.022H59.0343C57.4073 22.4956 55.7057 25.2515 54.1534 27.9492V29.7007H60.0138V32ZM56.1456 27.9824V27.8579C57.3077 25.8242 58.6939 23.6079 59.9225 21.7319H60.047V27.9824H56.1456ZM68.2303 32H70.3719V20.022H68.2386L65.1092 22.2217V24.2388L68.0892 22.1304H68.2303V32Z" fill="black"/>
<path opacity="0.35" d="M339.35 23C339.35 21.0822 340.904 19.5275 342.822 19.5275H359.822C361.74 19.5275 363.295 21.0822 363.295 23V28C363.295 29.9178 361.74 31.4725 359.822 31.4725H342.822C340.904 31.4725 339.35 29.9178 339.35 28V23Z" fill="black" stroke="black" stroke-width="1.05509"/>
<path opacity="0.4" d="M364.822 24V28.2203C365.671 27.8629 366.223 27.0314 366.223 26.1102C366.223 25.1889 365.671 24.3574 364.822 24Z" fill="black"/>
<path d="M340.822 23C340.822 21.8954 341.718 21 342.822 21H359.822C360.927 21 361.822 21.8954 361.822 23V28C361.822 29.1046 360.927 30 359.822 30H342.822C341.718 30 340.822 29.1046 340.822 28V23Z" fill="black"/>
<path fill-rule="evenodd" clip-rule="evenodd" d="M323.323 22.5875C325.789 22.5876 328.162 23.5551 329.949 25.2898C330.084 25.4237 330.299 25.4221 330.431 25.286L331.718 23.9604C331.785 23.8915 331.823 23.798 331.822 23.7008C331.822 23.6035 331.783 23.5105 331.715 23.4423C327.023 18.8526 319.621 18.8526 314.929 23.4423C314.861 23.5105 314.823 23.6034 314.822 23.7007C314.822 23.7979 314.859 23.8914 314.926 23.9604L316.213 25.286C316.346 25.4223 316.561 25.424 316.696 25.2898C318.483 23.5549 320.856 22.5875 323.323 22.5875ZM323.358 26.6724C324.713 26.6723 326.02 27.1864 327.025 28.115C327.161 28.2467 327.375 28.2439 327.507 28.1085L328.792 26.7829C328.86 26.7134 328.898 26.6191 328.897 26.5211C328.896 26.4231 328.856 26.3295 328.787 26.2614C325.728 23.3568 320.991 23.3568 317.932 26.2614C317.863 26.3295 317.823 26.4231 317.822 26.5212C317.821 26.6192 317.859 26.7135 317.927 26.7829L319.212 28.1085C319.344 28.2439 319.558 28.2467 319.694 28.115C320.698 27.1871 322.004 26.6729 323.358 26.6724ZM325.972 29.3427C325.974 29.441 325.936 29.5357 325.867 29.6046L323.644 31.8948C323.579 31.9621 323.49 32 323.397 32C323.304 32 323.216 31.9621 323.15 31.8948L320.927 29.6046C320.858 29.5357 320.82 29.4409 320.822 29.3426C320.824 29.2443 320.866 29.1512 320.938 29.0853C322.357 27.8595 324.437 27.8595 325.857 29.0853C325.928 29.1513 325.97 29.2444 325.972 29.3427Z" fill="black"/>
<path d="M298.822 23C298.822 22.4477 299.27 22 299.822 22H300.822C301.375 22 301.822 22.4477 301.822 23V31C301.822 31.5523 301.375 32 300.822 32H299.822C299.27 32 298.822 31.5523 298.822 31V23Z" fill="black"/>
<path d="M303.822 21C303.822 20.4477 304.27 20 304.822 20H305.822C306.375 20 306.822 20.4477 306.822 21V31C306.822 31.5523 306.375 32 305.822 32H304.822C304.27 32 303.822 31.5523 303.822 31V21Z" fill="black"/>
<path d="M293.822 26.5C293.822 25.9477 294.27 25.5 294.822 25.5H295.822C296.375 25.5 296.822 25.9477 296.822 26.5V31C296.822 31.5523 296.375 32 295.822 32H294.822C294.27 32 293.822 31.5523 293.822 31V26.5Z" fill="black"/>
<path d="M288.822 29C288.822 28.4477 289.27 28 289.822 28H290.822C291.375 28 291.822 28.4477 291.822 29V31C291.822 31.5523 291.375 32 290.822 32H289.822C289.27 32 288.822 31.5523 288.822 31V29Z" fill="black"/>
</svg>
